<svg width="160" height="40" viewBox="0 0 160 40" fill="none" xmlns="http://www.w3.org/2000/svg">
<g clip-path="url(#clip0_34_109)">
<path d="M25.0925 1.05386L21.1595 0L17.8451 12.3696L14.8528 1.20224L10.9197 2.2561L14.1527 14.3216L6.10008 6.26898L3.22089 9.14817L12.0536 17.981L1.05386 15.0336L0 18.9666L12.0186 22.187C11.881 21.5935 11.8082 20.9751 11.8082 20.3397C11.8082 15.8421 15.4542 12.1961 19.9518 12.1961C24.4494 12.1961 28.0954 15.8421 28.0954 20.3397C28.0954 20.971 28.0235 21.5856 27.8876 22.1756L38.8103 25.1023L39.8641 21.1693L27.7977 17.9361L38.7982 14.9885L37.7443 11.0555L25.6784 14.2885L33.731 6.23592L30.8518 3.35673L22.1416 12.067L25.0925 1.05386Z" fill="#FF820A"/>
<path d="M27.877 22.2214C27.5398 23.647 26.8279 24.9277 25.8511 25.9538L33.7641 33.8669L36.6433 30.9877L27.877 22.2214Z" fill="#FF820A"/>
<path d="M25.7712 26.0366C24.7826 27.0463 23.5333 27.7998 22.1323 28.1881L25.0117 38.9341L28.9447 37.8802L25.7712 26.0366Z" fill="#FF820A"/>
<path d="M21.985 28.2274C21.335 28.3945 20.6537 28.4833 19.9516 28.4833C19.1994 28.4833 18.471 28.3813 17.7795 28.1904L14.8975 38.9462L18.8305 40L21.985 28.2274Z" fill="#FF820A"/>
<path d="M17.6409 28.1507C16.2613 27.7431 15.0342 26.98 14.0658 25.9674L6.1333 33.8999L9.01249 36.7791L17.6409 28.1507Z" fill="#FF820A"/>
<path d="M13.9994 25.8973C13.0476 24.8783 12.3543 23.6147 12.0243 22.2111L1.06592 25.1474L2.11977 29.0804L13.9994 25.8973Z" fill="#FF820A"/>
<path d="M57.0803 27.308C56.1269 27.308 55.2689 27.2127 54.5063 27.022C53.7583 26.846 53.1129 26.5747 52.5703 26.208C52.0423 25.8267 51.6243 25.3573 51.3163 24.8C51.0229 24.228 50.8543 23.5753 50.8103 22.842L53.5823 21.94C53.6116 22.6 53.7729 23.15 54.0663 23.59C54.3743 24.03 54.8069 24.3527 55.3643 24.558C55.9216 24.7633 56.5449 24.866 57.2343 24.866C57.8943 24.866 58.4516 24.7853 58.9063 24.624C59.3609 24.4627 59.7056 24.25 59.9403 23.986C60.1749 23.7073 60.2923 23.4067 60.2923 23.084C60.2923 22.7027 60.1456 22.3947 59.8523 22.16C59.5589 21.9253 59.1556 21.7273 58.6423 21.566C58.1436 21.4047 57.5716 21.2507 56.9263 21.104C56.2076 20.9427 55.4963 20.7593 54.7923 20.554C54.1029 20.3487 53.4723 20.0847 52.9003 19.762C52.3429 19.4393 51.8956 19.0213 51.5583 18.508C51.2356 17.9947 51.0743 17.3493 51.0743 16.572C51.0743 15.6773 51.2943 14.9073 51.7343 14.262C52.1889 13.602 52.8489 13.0887 53.7143 12.722C54.5796 12.3553 55.6209 12.172 56.8383 12.172C58.0703 12.172 59.1189 12.3553 59.9843 12.722C60.8643 13.074 61.5463 13.58 62.0303 14.24C62.5143 14.8853 62.7783 15.6553 62.8223 16.55L59.9623 17.342C59.9623 16.8873 59.8889 16.4913 59.7423 16.154C59.5956 15.8167 59.3903 15.538 59.1263 15.318C58.8623 15.0833 58.5323 14.9073 58.1363 14.79C57.7549 14.6727 57.3149 14.614 56.8163 14.614C56.2443 14.614 55.7456 14.6873 55.3203 14.834C54.9096 14.9807 54.5943 15.1787 54.3743 15.428C54.1689 15.6773 54.0663 15.9707 54.0663 16.308C54.0663 16.704 54.2276 17.034 54.5503 17.298C54.8876 17.5473 55.3276 17.7527 55.8703 17.914C56.4276 18.0753 57.0363 18.2293 57.6963 18.376C58.3269 18.508 58.9649 18.6767 59.6103 18.882C60.2703 19.0727 60.8789 19.3293 61.4363 19.652C62.0083 19.96 62.4629 20.3853 62.8003 20.928C63.1523 21.456 63.3283 22.1233 63.3283 22.93C63.3283 23.81 63.0936 24.58 62.6243 25.24C62.1549 25.9 61.4509 26.4133 60.5123 26.78C59.5883 27.132 58.4443 27.308 57.0803 27.308ZM65.6678 27V11.27H68.7918V20.004C69.2465 19.696 69.6792 19.366 70.0898 19.014C70.5152 18.6473 70.8965 18.266 71.2338 17.87C71.5858 17.474 71.8938 17.0707 72.1578 16.66C72.4365 16.2493 72.6712 15.846 72.8618 15.45H76.4918C76.2718 16.0073 75.9785 16.572 75.6118 17.144C75.2598 17.7013 74.8345 18.222 74.3358 18.706C73.8518 19.1753 73.2872 19.5787 72.6418 19.916C71.9965 20.2533 71.2852 20.4807 70.5078 20.598V20.972C71.4905 20.796 72.3045 20.8107 72.9498 21.016C73.5952 21.2213 74.1232 21.5513 74.5338 22.006C74.9592 22.446 75.2965 22.9593 75.5458 23.546C75.7952 24.118 76.0225 24.6973 76.2278 25.284L76.7338 27H73.2798L72.9938 25.922C72.7885 25.2033 72.5612 24.5727 72.3118 24.03C72.0625 23.4873 71.7325 23.0693 71.3218 22.776C70.9258 22.468 70.3758 22.314 69.6718 22.314H68.7918V27H65.6678ZM82.9794 31.004C82.3927 31.004 81.7914 30.9453 81.1754 30.828C80.5741 30.7253 80.0021 30.5567 79.4594 30.322C78.9314 30.102 78.4767 29.816 78.0954 29.464L78.9974 26.758C79.4667 27.242 80.0534 27.6013 80.7574 27.836C81.4614 28.0853 82.1581 28.21 82.8474 28.21C83.6247 28.21 84.2701 28.0487 84.7834 27.726C85.3114 27.418 85.7074 26.9413 85.9714 26.296C86.2501 25.636 86.4114 24.8147 86.4554 23.832L86.5874 21.83H86.1034C85.9567 22.798 85.7147 23.59 85.3774 24.206C85.0547 24.822 84.6367 25.2767 84.1234 25.57C83.6247 25.8487 83.0307 25.988 82.3414 25.988C81.5054 25.988 80.8014 25.7753 80.2294 25.35C79.6574 24.9247 79.2247 24.2867 78.9314 23.436C78.6527 22.5853 78.5134 21.5367 78.5134 20.29V15.45H81.6814V19.52C81.6814 20.884 81.8354 21.8667 82.1434 22.468C82.4514 23.0693 82.9207 23.37 83.5514 23.37C83.8887 23.37 84.1967 23.282 84.4754 23.106C84.7541 22.9153 84.9887 22.644 85.1794 22.292C85.3847 21.94 85.5387 21.5147 85.6414 21.016C85.7587 20.5027 85.8174 19.9233 85.8174 19.278V15.45H88.9854V23.942C88.9854 24.866 88.9047 25.7093 88.7434 26.472C88.5821 27.22 88.3401 27.8727 88.0174 28.43C87.7094 29.002 87.3134 29.4787 86.8294 29.86C86.3454 30.2413 85.7807 30.5273 85.1354 30.718C84.5047 30.9087 83.7861 31.004 82.9794 31.004ZM93.8455 27L90.5675 12.48H94.0215L96.1775 24.294H96.4195L98.9715 12.48H102.998L105.55 24.294H105.814L107.97 12.48H111.248L107.926 27H103.504L101.04 15.186H100.842L98.3775 27H93.8455ZM115.296 27.308C114.65 27.308 114.078 27.1833 113.58 26.934C113.081 26.67 112.692 26.296 112.414 25.812C112.135 25.328 111.996 24.7267 111.996 24.008C111.996 23.3773 112.113 22.8493 112.348 22.424C112.597 21.9987 112.956 21.654 113.426 21.39C113.895 21.126 114.474 20.906 115.164 20.73C115.853 20.554 116.638 20.4 117.518 20.268C117.987 20.1947 118.368 20.1287 118.662 20.07C118.97 19.9967 119.197 19.8867 119.344 19.74C119.49 19.5787 119.564 19.3513 119.564 19.058C119.564 18.6473 119.417 18.2953 119.124 18.002C118.83 17.7087 118.368 17.562 117.738 17.562C117.312 17.562 116.916 17.6353 116.55 17.782C116.198 17.9287 115.89 18.1487 115.626 18.442C115.376 18.7353 115.193 19.1093 115.076 19.564L112.282 18.706C112.458 18.1047 112.707 17.584 113.03 17.144C113.367 16.704 113.77 16.3373 114.24 16.044C114.709 15.736 115.244 15.5087 115.846 15.362C116.447 15.2153 117.1 15.142 117.804 15.142C118.933 15.142 119.85 15.3253 120.554 15.692C121.272 16.044 121.808 16.6013 122.16 17.364C122.512 18.112 122.688 19.08 122.688 20.268V22.248C122.688 22.7613 122.695 23.282 122.71 23.81C122.739 24.338 122.768 24.8733 122.798 25.416C122.842 25.944 122.886 26.472 122.93 27H120.136C120.077 26.6333 120.018 26.2153 119.96 25.746C119.916 25.262 119.879 24.778 119.85 24.294H119.454C119.248 24.8513 118.955 25.3573 118.574 25.812C118.192 26.2667 117.723 26.6333 117.166 26.912C116.623 27.176 116 27.308 115.296 27.308ZM116.638 25.02C116.916 25.02 117.195 24.9687 117.474 24.866C117.767 24.7633 118.046 24.624 118.31 24.448C118.588 24.2573 118.838 24.0227 119.058 23.744C119.292 23.4653 119.483 23.15 119.63 22.798L119.586 20.95L120.092 21.06C119.828 21.2507 119.52 21.4047 119.168 21.522C118.816 21.6247 118.449 21.7053 118.068 21.764C117.701 21.8227 117.334 21.8887 116.968 21.962C116.601 22.0353 116.271 22.1307 115.978 22.248C115.699 22.3653 115.472 22.5267 115.296 22.732C115.134 22.9227 115.054 23.194 115.054 23.546C115.054 24.0007 115.2 24.36 115.494 24.624C115.787 24.888 116.168 25.02 116.638 25.02ZM129.749 27.264C128.458 27.264 127.505 26.9267 126.889 26.252C126.288 25.5627 125.987 24.47 125.987 22.974V17.936H124.315L124.359 15.45H125.525C125.98 15.45 126.317 15.384 126.537 15.252C126.757 15.12 126.889 14.878 126.933 14.526L127.219 12.876H129.023V15.45H131.949V18.024H129.023V22.842C129.023 23.37 129.148 23.7513 129.397 23.986C129.646 24.2207 130.028 24.338 130.541 24.338C130.82 24.338 131.084 24.3087 131.333 24.25C131.597 24.1913 131.824 24.096 132.015 23.964V26.912C131.56 27.0587 131.142 27.154 130.761 27.198C130.38 27.242 130.042 27.264 129.749 27.264ZM139.485 27.308C138.487 27.308 137.615 27.1613 136.867 26.868C136.119 26.5747 135.495 26.164 134.997 25.636C134.498 25.108 134.124 24.4847 133.875 23.766C133.625 23.0327 133.501 22.2333 133.501 21.368C133.501 20.4587 133.625 19.63 133.875 18.882C134.139 18.1193 134.52 17.4593 135.019 16.902C135.517 16.3447 136.133 15.912 136.867 15.604C137.6 15.296 138.436 15.142 139.375 15.142C140.313 15.142 141.127 15.296 141.817 15.604C142.521 15.912 143.085 16.3447 143.511 16.902C143.951 17.4447 144.251 18.09 144.413 18.838L141.487 19.784C141.443 19.3293 141.318 18.9407 141.113 18.618C140.922 18.2807 140.658 18.0313 140.321 17.87C139.998 17.694 139.631 17.606 139.221 17.606C138.795 17.606 138.429 17.694 138.121 17.87C137.813 18.0313 137.549 18.2733 137.329 18.596C137.123 18.904 136.962 19.2853 136.845 19.74C136.742 20.18 136.691 20.6787 136.691 21.236C136.691 22.028 136.793 22.7027 136.999 23.26C137.219 23.8027 137.534 24.2207 137.945 24.514C138.37 24.7927 138.891 24.932 139.507 24.932C140.093 24.932 140.563 24.822 140.915 24.602C141.267 24.3673 141.523 24.074 141.685 23.722C141.861 23.3553 141.971 22.9813 142.015 22.6L144.787 23.216C144.713 23.788 144.552 24.3233 144.303 24.822C144.068 25.3207 143.731 25.7533 143.291 26.12C142.851 26.4867 142.315 26.78 141.685 27C141.069 27.2053 140.335 27.308 139.485 27.308ZM146.599 27V19.74V11.27H149.789V14.878C149.789 15.1713 149.775 15.4793 149.745 15.802C149.731 16.1247 149.694 16.4547 149.635 16.792C149.591 17.1147 149.54 17.4447 149.481 17.782C149.437 18.1193 149.386 18.4567 149.327 18.794H149.811C150.017 18.046 150.273 17.4007 150.581 16.858C150.904 16.3153 151.315 15.8973 151.813 15.604C152.312 15.296 152.943 15.142 153.705 15.142C155.055 15.142 156.067 15.6187 156.741 16.572C157.416 17.5107 157.753 18.9553 157.753 20.906V27H154.563V21.39C154.563 20.158 154.38 19.2487 154.013 18.662C153.661 18.0607 153.126 17.76 152.407 17.76C151.821 17.76 151.337 17.936 150.955 18.288C150.574 18.64 150.288 19.1167 150.097 19.718C149.907 20.3047 149.797 20.9647 149.767 21.698V27H146.599Z" fill="white"/>
</g>
<defs>
<clipPath id="clip0_34_109">
<rect width="159.864" height="40" fill="white"/>
</clipPath>
</defs>
</svg>
